<svg xmlns="http://www.w3.org/2000/svg" xmlns:xlink="http://www.w3.org/1999/xlink" width="2300" zoomAndPan="magnify" viewBox="0 0 1724.88 525.000007" height="700" preserveAspectRatio="xMidYMid meet" version="1.0"><defs><g/></defs><g fill="#222222" fill-opacity="1"><g transform="translate(429.652185, 479.243637)"><g><path d="M 163.640625 -209.796875 C 172.429688 -209.796875 182.617188 -209.597656 194.203125 -209.203125 C 205.796875 -208.804688 217.585938 -207.609375 229.578125 -205.609375 C 241.566406 -203.609375 252.65625 -200.3125 262.84375 -195.71875 C 273.039062 -191.125 281.234375 -184.679688 287.421875 -176.390625 C 293.617188 -168.097656 296.71875 -157.359375 296.71875 -144.171875 C 296.71875 -128.578125 293.320312 -116.035156 286.53125 -106.546875 C 279.738281 -97.054688 270.296875 -89.863281 258.203125 -84.96875 C 246.117188 -80.070312 232.179688 -76.773438 216.390625 -75.078125 C 200.609375 -73.378906 183.828125 -72.429688 166.046875 -72.234375 L 56.640625 -72.234375 L 56.640625 0 L 17.984375 0 L 17.984375 -209.796875 Z M 154.0625 -110.890625 C 175.4375 -110.890625 192.765625 -111.539062 206.046875 -112.84375 C 219.335938 -114.144531 229.628906 -115.894531 236.921875 -118.09375 C 244.222656 -120.289062 249.320312 -122.835938 252.21875 -125.734375 C 255.113281 -128.628906 256.8125 -131.675781 257.3125 -134.875 C 257.8125 -138.070312 258.0625 -141.171875 258.0625 -144.171875 C 258.0625 -149.554688 255.710938 -153.945312 251.015625 -157.34375 C 246.316406 -160.75 240.171875 -163.398438 232.578125 -165.296875 C 224.984375 -167.191406 216.890625 -168.539062 208.296875 -169.34375 C 199.710938 -170.144531 191.472656 -170.644531 183.578125 -170.84375 C 175.679688 -171.039062 169.035156 -171.140625 163.640625 -171.140625 L 56.640625 -171.140625 L 56.640625 -110.890625 Z M 154.0625 -110.890625 "/></g></g></g><g fill="#222222" fill-opacity="1"><g transform="translate(722.17242, 479.243637)"><g><path d="M 56.640625 0 L 17.984375 0 L 17.984375 -209.796875 L 56.640625 -209.796875 Z M 56.640625 0 "/></g></g></g><g fill="#222222" fill-opacity="1"><g transform="translate(774.322322, 479.243637)"><g><path d="M 86.625 -87.21875 L 86.625 -125.875 L 141.765625 -125.875 L 141.765625 -106.703125 C 141.765625 -82.328125 138.367188 -61.242188 131.578125 -43.453125 C 124.785156 -25.671875 115.296875 -13.1875 103.109375 -6 C 96.515625 -2 89.519531 0 82.125 0 C 74.53125 0 67.238281 -2 60.25 -6 C 51.65625 -10.789062 44.207031 -18.082031 37.90625 -27.875 C 31.613281 -37.664062 26.71875 -49.15625 23.21875 -62.34375 C 19.726562 -75.53125 17.984375 -89.71875 17.984375 -104.90625 C 17.984375 -124.882812 20.78125 -142.765625 26.375 -158.546875 C 31.96875 -174.335938 39.609375 -186.828125 49.296875 -196.015625 C 58.992188 -205.203125 70.035156 -209.796875 82.421875 -209.796875 C 93.210938 -209.796875 103.203125 -206.050781 112.390625 -198.5625 C 121.585938 -191.070312 129.082031 -180.429688 134.875 -166.640625 L 99.5 -151.65625 C 96.507812 -158.25 93.414062 -163.144531 90.21875 -166.34375 C 87.019531 -169.539062 84.421875 -171.140625 82.421875 -171.140625 C 79.421875 -171.140625 75.875 -168.488281 71.78125 -163.1875 C 67.6875 -157.894531 64.140625 -150.300781 61.140625 -140.40625 C 58.140625 -130.519531 56.640625 -118.6875 56.640625 -104.90625 C 56.640625 -92.113281 57.9375 -81.117188 60.53125 -71.921875 C 63.132812 -62.734375 66.1875 -55.441406 69.6875 -50.046875 C 73.1875 -44.648438 76.429688 -41.15625 79.421875 -39.5625 C 80.421875 -38.957031 81.46875 -38.554688 82.5625 -38.359375 C 83.664062 -38.160156 84.816406 -38.5625 86.015625 -39.5625 C 89.816406 -42.15625 93.515625 -47.5 97.109375 -55.59375 C 100.703125 -63.6875 103.203125 -74.226562 104.609375 -87.21875 Z M 86.625 -87.21875 "/></g></g></g><g fill="#222222" fill-opacity="1"><g transform="translate(911.590867, 479.243637)"><g><path d="M 117.1875 -171.140625 L 56.640625 -171.140625 L 56.640625 -133.96875 L 99.203125 -133.96875 L 99.203125 -95.3125 L 56.640625 -95.3125 L 56.640625 -38.65625 L 117.1875 -38.65625 L 117.1875 0 L 17.984375 0 L 17.984375 -210.109375 L 117.1875 -210.109375 Z M 117.1875 -171.140625 "/></g></g></g><g fill="#222222" fill-opacity="1"><g transform="translate(1024.282935, 479.243637)"><g><path d="M 69.828125 -210.109375 C 81.816406 -210.109375 92.554688 -205.507812 102.046875 -196.3125 C 111.546875 -187.125 119.039062 -174.585938 124.53125 -158.703125 C 130.03125 -142.816406 132.78125 -124.882812 132.78125 -104.90625 C 132.78125 -84.925781 130.03125 -67.039062 124.53125 -51.25 C 119.039062 -35.46875 111.546875 -22.976562 102.046875 -13.78125 C 92.554688 -4.59375 81.816406 0 69.828125 0 C 57.835938 0 47.097656 -4.59375 37.609375 -13.78125 C 28.117188 -22.976562 20.625 -35.46875 15.125 -51.25 C 9.632812 -67.039062 6.890625 -84.925781 6.890625 -104.90625 C 6.890625 -124.882812 9.632812 -142.816406 15.125 -158.703125 C 20.625 -174.585938 28.117188 -187.125 37.609375 -196.3125 C 47.097656 -205.507812 57.835938 -210.109375 69.828125 -210.109375 Z M 69.828125 -38.65625 C 72.234375 -38.65625 75.332031 -41.203125 79.125 -46.296875 C 82.925781 -51.398438 86.375 -58.894531 89.46875 -68.78125 C 92.5625 -78.675781 94.109375 -90.71875 94.109375 -104.90625 C 94.109375 -119.289062 92.5625 -131.425781 89.46875 -141.3125 C 86.375 -151.207031 82.925781 -158.703125 79.125 -163.796875 C 75.332031 -168.890625 72.234375 -171.4375 69.828125 -171.4375 C 67.429688 -171.4375 64.332031 -168.890625 60.53125 -163.796875 C 56.738281 -158.703125 53.296875 -151.207031 50.203125 -141.3125 C 47.109375 -131.425781 45.5625 -119.289062 45.5625 -104.90625 C 45.5625 -90.71875 47.109375 -78.675781 50.203125 -68.78125 C 53.296875 -58.894531 56.738281 -51.398438 60.53125 -46.296875 C 64.332031 -41.203125 67.429688 -38.65625 69.828125 -38.65625 Z M 69.828125 -38.65625 "/></g></g></g><g fill="#222222" fill-opacity="1"><g transform="translate(1141.470697, 479.243637)"><g><path d="M 97.109375 -210.109375 L 135.765625 -210.109375 L 135.765625 0 L 97.109375 0 L 56.953125 -107 L 56.953125 0 L 18.28125 0 L 18.28125 -209.5 L 17.984375 -210.109375 L 59.34375 -210.109375 L 97.109375 -109.390625 Z M 97.109375 -210.109375 "/></g></g></g><g fill="#222222" fill-opacity="1"><g transform="translate(255.942874, 256.01237)"><g><path d="M 124.265625 -217.375 C 154.003906 -217.375 178.753906 -206.195312 198.515625 -183.84375 L 169.171875 -162.28125 C 155.992188 -176.257812 141.125 -183.25 124.5625 -183.25 C 103.195312 -183.25 85.726562 -175.960938 72.15625 -161.390625 C 58.582031 -146.816406 51.796875 -128.851562 51.796875 -107.5 C 51.796875 -84.539062 58.582031 -65.675781 72.15625 -50.90625 C 85.726562 -36.132812 103.195312 -28.75 124.5625 -28.75 C 142.726562 -28.75 158.597656 -37.332031 172.171875 -54.5 L 203.3125 -32.34375 C 194.125 -19.363281 182.539062 -9.828125 168.5625 -3.734375 C 154.59375 2.347656 139.828125 5.390625 124.265625 5.390625 C 90.921875 5.390625 63.921875 -4.988281 43.265625 -25.75 C 22.609375 -46.507812 12.28125 -72.957031 12.28125 -105.09375 C 12.28125 -138.425781 22.554688 -165.472656 43.109375 -186.234375 C 63.671875 -206.992188 90.722656 -217.375 124.265625 -217.375 Z M 124.265625 -217.375 "/></g></g></g><g fill="#222222" fill-opacity="1"><g transform="translate(438.594593, 256.01237)"><g><path d="M 61.375 -211.984375 L 61.375 -127.546875 L 160.484375 -127.546875 L 160.484375 -211.984375 L 198.21875 -211.984375 L 198.21875 0 L 160.484375 0 L 160.484375 -93.421875 L 61.375 -93.421875 L 61.375 0 L 23.65625 0 L 23.65625 -211.984375 Z M 61.375 -211.984375 "/></g></g></g><g fill="#222222" fill-opacity="1"><g transform="translate(638.014373, 256.01237)"><g><path d="M 98.515625 -211.984375 C 123.859375 -211.984375 143.164062 -206.742188 156.4375 -196.265625 C 169.71875 -185.785156 176.359375 -170.765625 176.359375 -151.203125 C 176.359375 -135.234375 171.914062 -122.207031 163.03125 -112.125 C 154.144531 -102.050781 142.21875 -95.914062 127.25 -93.71875 L 183.546875 0 L 138.03125 0 L 88.921875 -89.828125 L 61.375 -89.828125 L 61.375 0 L 23.65625 0 L 23.65625 -211.984375 Z M 92.515625 -122.171875 C 108.890625 -122.171875 120.367188 -124.613281 126.953125 -129.5 C 133.535156 -134.382812 136.828125 -141.71875 136.828125 -151.5 C 136.828125 -170.269531 122.957031 -179.65625 95.21875 -179.65625 L 61.375 -179.65625 L 61.375 -122.171875 Z M 92.515625 -122.171875 "/></g></g></g><g fill="#222222" fill-opacity="1"><g transform="translate(804.197484, 256.01237)"><g><path d="M 237.140625 -106.296875 C 237.140625 -73.359375 226.507812 -46.507812 205.25 -25.75 C 183.988281 -4.988281 156.789062 5.390625 123.65625 5.390625 C 91.125 5.390625 64.425781 -4.835938 43.5625 -25.296875 C 22.707031 -45.753906 12.28125 -72.351562 12.28125 -105.09375 C 12.28125 -126.65625 16.921875 -145.96875 26.203125 -163.03125 C 35.484375 -180.101562 48.753906 -193.425781 66.015625 -203 C 83.285156 -212.582031 103.195312 -217.375 125.75 -217.375 C 158.6875 -217.375 185.484375 -207.289062 206.140625 -187.125 C 226.804688 -166.96875 237.140625 -140.023438 237.140625 -106.296875 Z M 51.796875 -107.5 C 51.796875 -84.539062 58.53125 -65.675781 72 -50.90625 C 85.476562 -36.132812 103 -28.75 124.5625 -28.75 C 145.914062 -28.75 163.429688 -35.984375 177.109375 -50.453125 C 190.785156 -64.921875 197.625 -83.9375 197.625 -107.5 C 197.625 -129.25 190.832031 -147.3125 177.25 -161.6875 C 163.675781 -176.0625 146.015625 -183.25 124.265625 -183.25 C 103.703125 -183.25 86.484375 -176.160156 72.609375 -161.984375 C 58.734375 -147.816406 51.796875 -129.65625 51.796875 -107.5 Z M 51.796875 -107.5 "/></g></g></g><g fill="#222222" fill-opacity="1"><g transform="translate(1031.164754, 256.01237)"><g><path d="M 82.046875 -211.984375 L 138.625 -63.484375 L 195.828125 -211.984375 L 252.71875 -211.984375 L 252.71875 0 L 216.78125 0 L 216.78125 -176.0625 L 216.1875 -176.0625 L 151.8125 0 L 125.453125 0 L 61.078125 -176.0625 L 60.484375 -176.0625 L 60.484375 0 L 24.546875 0 L 24.546875 -211.984375 Z M 82.046875 -211.984375 "/></g></g></g><g fill="#222222" fill-opacity="1"><g transform="translate(1285.978854, 256.01237)"><g><path d="M 164.078125 -211.984375 L 164.078125 -177.859375 L 61.375 -177.859375 L 61.375 -125.75 L 158.6875 -125.75 L 158.6875 -91.625 L 61.375 -91.625 L 61.375 -34.140625 L 169.46875 -34.140625 L 169.46875 0 L 23.65625 0 L 23.65625 -211.984375 Z M 164.078125 -211.984375 "/></g></g></g></svg>